<?xml version="1.0" encoding="UTF-8" standalone="no"?>
<!-- Created with Inkscape (http://www.inkscape.org/) -->

<svg
   xmlns:dc="http://purl.org/dc/elements/1.1/"
   xmlns:cc="http://creativecommons.org/ns#"
   xmlns:rdf="http://www.w3.org/1999/02/22-rdf-syntax-ns#"
   xmlns:svg="http://www.w3.org/2000/svg"
   xmlns="http://www.w3.org/2000/svg"
   xmlns:sodipodi="http://sodipodi.sourceforge.net/DTD/sodipodi-0.dtd"
   xmlns:inkscape="http://www.inkscape.org/namespaces/inkscape"
   width="512"
   height="512"
   viewBox="0 0 135.46666 135.46667"
   version="1.1"
   id="svg8"
   inkscape:version="0.92.5 (2060ec1f9f, 2020-04-08)"
   sodipodi:docname="jafhe2.svg">
  <defs
     id="defs2" />
  <sodipodi:namedview
     id="base"
     pagecolor="#ffffff"
     bordercolor="#666666"
     borderopacity="1.0"
     inkscape:pageopacity="0.0"
     inkscape:pageshadow="2"
     inkscape:zoom="1"
     inkscape:cx="108.79127"
     inkscape:cy="168.38985"
     inkscape:document-units="mm"
     inkscape:current-layer="layer3"
     showgrid="true"
     inkscape:window-width="2488"
     inkscape:window-height="1376"
     inkscape:window-x="72"
     inkscape:window-y="27"
     inkscape:window-maximized="1"
     units="px"
     inkscape:snap-bbox="true"
     inkscape:bbox-paths="true"
     inkscape:snap-bbox-edge-midpoints="true"
     inkscape:snap-global="true">
    <inkscape:grid
       spacingx="4.2333333"
       spacingy="4.2333333"
       type="xygrid"
       id="grid4678" />
  </sodipodi:namedview>
  <metadata
     id="metadata5">
    <rdf:RDF>
      <cc:Work
         rdf:about="">
        <dc:format>image/svg+xml</dc:format>
        <dc:type
           rdf:resource="http://purl.org/dc/dcmitype/StillImage" />
        <dc:title></dc:title>
      </cc:Work>
    </rdf:RDF>
  </metadata>
  <g
     inkscape:label="Layer 1"
     inkscape:groupmode="layer"
     id="layer1"
     transform="translate(0,-161.53332)" />
  <g
     inkscape:groupmode="layer"
     id="layer3"
     inkscape:label="Layer 2"
     style="display:inline"
     transform="translate(0,-161.53332)">
    <g
       id="g4694"
       transform="translate(-0.14228186,-3.3749103e-6)">
      <g
         transform="matrix(0.08999013,0,0,0.08999151,68.238216,84.264317)"
         id="g3792">
        <path
           style="fill:#252525;fill-opacity:1;stroke:none;stroke-width:3.18925238"
           inkscape:connector-curvature="0"
           id="Hash"
           d="m 152.75437,1477.3404 c 0,0 -286.36297,0 -286.36297,0 0,0 -82.66542,328.493 -82.66542,328.493 0,0 288.372206,0 288.372206,0 0,0 80.656184,-328.493 80.656184,-328.493 z M 5.1557798,916.03195 c 0,0 -102.3431118,408.22435 -102.3431118,408.22435 0,0 287.383532,0 287.383532,0 0,0 103.33177,-408.22435 103.33177,-408.22435 0,0 157.4853,0 157.4853,0 0,0 -101.41823,408.22435 -101.41823,408.22435 0,0 307.06123,0 307.06123,0 0,0 0,153.0841 0,153.0841 0,0 -345.42795,0 -345.42795,0 0,0 -80.68809,328.493 -80.68809,328.493 0,0 312.96137,0 312.96137,0 0,0 0,149.895 0,149.895 0,0 -351.35996,0 -351.35996,0 0,0 -102.374998,408.2243 -102.374998,408.2243 0,0 -157.453391,0 -157.453391,0 0,0 101.418224,-408.2243 101.418224,-408.2243 0,0 -288.404095,0 -288.404095,0 0,0 -101.35445,408.2243 -101.35445,408.2243 0,0 -158.44205,0 -158.44205,0 0,0 102.34309,-408.2243 102.34309,-408.2243 0,0 -309.99532,0 -309.99532,0 0,0 0,-149.895 0,-149.895 0,0 346.41659,0 346.41659,0 0,0 82.66543,-328.493 82.66543,-328.493 0,0 -316.91602,0 -316.91602,0 0,0 0,-153.0841 0,-153.0841 0,0 355.28273,0 355.28273,0 0,0 100.36577,-408.22435 100.36577,-408.22435 0,0 159.4626298,0 159.4626298,0 z" />
      </g>
      <a
         transform="matrix(1.0628734,0,0,1.0628897,-1.1374337,-13.037064)"
         id="a4667">
        <path
           d="m 83.065449,211.76549 c 0,0 -24.245443,0 -24.245443,0 0,0 -6.999023,27.8125 -6.999023,27.8125 0,0 24.415565,0 24.415565,0 0,0 6.828901,-27.8125 6.828901,-27.8125 z M 70.568747,164.2413 c 0,0 -8.665069,34.56308 -8.665069,34.56308 0,0 24.331862,0 24.331862,0 0,0 8.748765,-34.56308 8.748765,-34.56308 0,0 13.333785,0 13.333785,0 0,0 -8.586755,34.56308 -8.586755,34.56308 0,0 25.997885,0 25.997885,0 0,0 0,12.96111 0,12.96111 0,0 -29.246275,0 -29.246275,0 0,0 -6.831603,27.8125 -6.831603,27.8125 0,0 26.497438,0 26.497438,0 0,0 0,12.69112 0,12.69112 0,0 -29.748532,0 -29.748532,0 0,0 -8.667761,34.56307 -8.667761,34.56307 0,0 -13.331088,0 -13.331088,0 0,0 8.586761,-34.56307 8.586761,-34.56307 0,0 -24.41826,0 -24.41826,0 0,0 -8.581365,34.56307 -8.581365,34.56307 0,0 -13.414787,0 -13.414787,0 0,0 8.665069,-34.56307 8.665069,-34.56307 0,0 -26.2463267,0 -26.2463267,0 0,0 0,-12.69112 0,-12.69112 0,0 29.3299997,0 29.3299997,0 0,0 6.999018,-27.8125 6.999018,-27.8125 0,0 -26.832275,0 -26.832275,0 0,0 0,-12.96111 0,-12.96111 0,0 30.080667,0 30.080667,0 0,0 8.49765,-34.56308 8.49765,-34.56308 0,0 13.501197,0 13.501197,0 z"
           id="Shadow"
           inkscape:connector-curvature="0"
           style="fill:#717171;fill-opacity:1;stroke:none;stroke-width:0.27002394;stroke-opacity:1" />
      </a>
    </g>
  </g>
</svg>
